P2
# CREATOR: GIMP PNM Filter Version 1.1
75 100
255
205
205
205
205
205
205
205
205
205
205
205
205
205
205
205
205
205
205
205
205
205
205
205
205
205
205
205
205
205
205
205
205
205
205
205
205
205
205
205
205
205
205
205
205
205
205
205
205
205
205
205
205
205
205
205
205
206
227
220
203
205
205
205
205
205
205
205
205
205
205
205
205
205
205
205
205
205
205
205
205
205
205
205
205
205
205
205
205
205
205
205
205
205
205
205
205
205
205
205
205
205
205
205
205
205
205
205
205
205
205
205
205
205
205
205
205
205
205
205
205
205
205
205
205
205
205
205
205
205
205
202
218
240
216
203
205
205
205
205
205
205
205
205
205
205
205
205
205
205
205
205
205
205
205
205
205
205
205
205
205
205
205
205
205
207
205
208
204
205
205
205
206
211
205
205
204
205
205
206
206
215
205
205
205
205
204
204
205
205
205
205
205
205
204
204
207
205
205
205
205
205
206
205
210
218
203
241
249
222
206
205
205
205
205
205
205
205
205
205
205
205
205
205
205
205
205
205
205
205
205
205
205
205
205
205
205
205
208
208
184
140
211
210
226
191
232
164
155
213
216
185
221
209
233
105
143
220
206
220
220
206
220
207
219
210
208
209
227
199
189
205
219
214
208
208
207
172
140
143
111
46
205
253
163
148
219
205
209
205
205
205
205
205
205
205
205
205
205
205
205
205
205
205
205
205
205
205
205
205
205
205
205
219
76
0
0
33
32
30
0
143
12
171
146
10
0
84
92
93
0
0
116
124
123
67
26
35
29
160
101
229
88
34
0
0
29
96
84
209
156
220
0
0
0
0
0
6
173
20
0
116
184
167
220
205
205
205
205
205
205
205
205
205
205
205
205
205
205
205
205
205
205
205
205
205
205
209
126
0
0
1
0
0
0
0
0
0
23
0
0
0
0
0
0
0
0
0
0
0
0
0
0
0
1
0
39
0
0
0
0
0
0
0
14
0
127
1
0
0
0
0
0
0
0
0
0
0
0
129
219
207
205
205
205
205
205
205
205
205
205
205
205
205
205
205
205
205
205
205
205
205
213
178
3
0
0
0
0
0
60
0
0
0
0
24
23
28
0
0
7
0
0
77
0
0
0
0
0
0
0
0
0
7
34
0
0
0
0
11
0
30
89
96
123
202
219
136
58
78
159
185
112
0
0
87
210
212
205
205
205
205
205
205
205
205
205
205
205
205
205
205
205
205
205
205
206
215
65
0
50
209
232
225
255
255
176
199
196
243
255
255
255
153
213
255
246
255
255
165
235
224
207
71
129
199
195
217
255
255
207
156
182
249
255
246
255
255
255
255
255
255
255
255
255
255
255
255
154
0
0
48
191
218
205
205
205
205
205
205
205
205
205
205
205
205
205
205
205
205
205
220
103
0
10
227
255
255
253
254
254
255
255
253
255
254
253
255
254
255
255
253
253
254
255
255
253
255
254
255
255
254
254
255
253
255
255
255
255
254
253
254
254
253
254
254
254
254
253
254
254
254
254
255
202
22
0
1
179
204
205
205
205
205
205
205
205
205
205
205
205
205
205
205
205
218
140
0
0
185
255
254
254
254
254
254
254
254
254
254
254
254
254
254
254
254
254
254
254
254
254
254
254
253
254
254
254
254
254
254
254
254
254
254
254
254
254
254
254
254
254
254
254
254
254
254
254
254
254
255
240
64
0
201
217
205
205
205
205
205
205
205
205
205
205
205
205
205
205
204
204
41
0
135
255
254
254
254
254
254
254
254
254
254
254
254
254
254
254
254
254
254
254
254
254
254
254
254
254
254
254
254
254
254
254
254
254
254
254
254
254
254
254
254
254
254
254
254
254
254
254
254
254
254
255
255
255
107
21
170
217
205
205
205
205
205
205
205
205
205
205
205
205
205
205
226
83
44
255
255
254
254
254
254
254
254
254
254
254
254
254
254
254
254
254
254
254
254
254
254
254
254
254
254
254
254
254
254
254
254
254
254
254
254
254
254
254
254
254
254
254
254
254
254
254
254
254
254
255
230
136
255
170
0
5
204
204
205
205
205
205
205
205
205
205
205
205
205
205
220
124
0
0
230
254
254
254
254
254
254
254
254
254
254
254
254
254
254
254
254
254
254
254
254
254
254
254
254
254
254
254
254
254
254
254
254
254
254
254
254
254
254
254
254
254
254
254
254
254
254
254
254
255
255
33
115
255
241
0
24
195
219
205
205
205
205
205
205
205
205
205
205
205
212
160
0
0
159
255
254
254
254
254
254
254
254
254
254
254
254
254
254
254
254
254
254
254
254
254
254
254
254
254
254
254
254
254
254
254
254
254
254
254
254
254
254
254
254
254
254
254
254
254
254
254
254
254
255
145
0
255
255
227
21
0
6
143
210
205
205
205
205
205
205
205
205
205
205
207
141
0
109
255
254
254
254
254
254
254
254
254
254
254
254
254
254
254
254
254
254
254
254
254
254
254
254
254
254
254
254
254
254
254
254
254
254
254
254
254
254
254
254
254
254
254
254
254
254
254
254
254
254
255
224
0
33
210
255
250
80
0
83
225
205
205
205
205
205
205
205
205
205
205
220
103
52
255
255
254
254
254
254
254
254
254
254
254
254
254
254
254
254
254
254
254
254
254
254
254
254
254
254
254
254
254
254
254
254
254
254
254
254
254
254
254
254
254
254
254
254
254
254
254
254
254
254
254
254
247
0
51
36
218
255
255
127
4
153
220
205
205
205
205
205
205
205
205
220
145
0
97
255
253
254
254
254
254
254
254
254
254
254
254
254
254
254
254
254
254
254
254
254
254
254
254
254
254
254
254
254
254
254
254
254
254
254
254
254
254
254
254
254
254
254
254
254
254
254
254
254
254
254
253
226
0
166
255
87
153
254
255
188
0
118
217
205
205
205
205
205
205
206
184
0
0
123
255
254
254
254
254
254
254
254
254
254
254
254
254
254
254
254
254
254
254
254
254
254
254
254
254
254
254
254
254
254
254
254
254
254
254
254
254
254
254
254
254
254
254
254
254
254
254
254
254
254
254
254
255
212
0
106
16
252
255
253
229
0
0
181
205
205
205
205
205
205
205
216
2
83
255
255
254
254
254
254
254
254
254
254
254
254
254
254
254
254
254
254
254
254
254
254
254
254
254
254
254
254
254
254
254
254
254
254
254
254
254
254
254
254
254
254
254
254
254
254
254
254
254
254
254
254
254
254
255
250
255
248
255
254
255
255
17
0
141
218
205
205
205
205
205
221
126
19
255
255
254
254
254
254
254
254
254
254
254
254
254
254
254
254
254
254
254
254
254
254
254
254
254
254
254
254
254
254
254
254
254
254
254
254
254
254
254
254
254
254
254
254
254
254
254
254
254
254
254
254
254
254
254
254
254
254
253
254
254
253
255
47
0
0
189
205
205
205
205
207
170
0
0
238
253
254
254
254
254
254
254
254
254
254
254
254
254
254
254
254
254
254
254
254
254
254
254
253
254
254
253
253
255
255
254
255
254
254
254
254
254
254
254
254
254
254
254
254
254
254
254
254
254
254
254
254
254
254
254
254
254
254
254
254
253
255
38
0
0
176
205
205
205
205
206
210
0
111
255
254
254
254
254
254
254
254
254
254
254
254
254
254
254
254
254
254
254
254
254
254
254
255
253
255
255
244
249
241
255
120
220
253
254
254
254
254
254
254
254
254
254
254
254
254
254
254
254
254
254
254
254
254
254
254
254
254
254
254
254
254
255
90
0
21
200
205
205
205
205
215
101
0
136
255
254
254
254
254
254
254
254
254
254
254
254
254
254
254
254
254
254
254
254
254
254
254
255
80
75
29
0
0
0
153
0
241
255
254
254
254
254
254
254
254
254
254
254
254
254
254
254
254
254
254
254
254
254
254
254
254
254
254
254
254
254
255
163
1
185
216
205
205
205
205
216
95
0
182
255
254
254
254
254
254
254
254
254
254
254
254
254
254
254
254
254
254
254
254
254
254
254
255
201
23
0
123
117
165
255
0
174
255
254
254
254
254
254
254
254
254
254
254
254
254
254
254
254
254
254
254
254
254
254
254
254
254
254
254
254
255
246
14
0
190
207
205
205
205
206
211
46
15
255
254
254
254
254
254
254
254
254
254
254
254
254
254
254
254
254
254
254
254
254
254
254
254
255
255
52
92
226
205
241
92
0
131
254
254
254
254
254
254
254
254
254
254
254
254
254
254
254
254
254
254
254
254
254
254
254
254
254
254
254
254
253
255
23
3
194
109
205
205
205
204
187
0
0
255
255
254
254
254
254
254
254
254
254
254
254
254
254
254
254
254
254
254
254
254
254
254
254
255
166
0
202
208
200
243
123
0
135
255
254
254
254
254
254
254
254
254
254
254
254
254
254
254
254
254
254
254
254
254
254
254
254
254
254
254
254
253
251
8
0
176
102
205
205
205
205
204
0
0
184
254
254
254
254
254
254
254
254
254
254
254
254
254
254
254
254
254
254
254
254
254
254
254
255
242
0
167
213
207
255
117
0
90
255
254
254
254
254
254
254
254
254
254
254
254
254
254
254
254
254
254
254
254
254
254
254
254
254
254
254
254
255
255
58
0
128
204
205
205
205
205
232
45
86
255
254
254
254
254
254
254
254
254
254
254
254
254
254
254
254
254
254
254
254
254
254
254
254
254
255
1
72
203
214
255
151
9
255
255
254
254
254
254
254
254
254
254
254
254
254
254
254
254
254
254
254
254
254
254
254
254
254
254
254
254
254
255
153
0
0
107
215
205
205
205
209
124
0
34
255
253
254
254
254
254
254
254
254
254
254
254
254
254
254
254
254
254
254
254
254
254
254
254
253
244
0
0
31
75
70
0
0
210
255
254
254
254
254
254
254
254
254
254
254
254
254
254
254
254
254
254
254
254
254
254
254
254
254
254
254
254
255
233
0
0
100
214
205
205
205
211
176
0
46
255
253
254
254
254
254
254
254
254
254
254
254
254
254
254
254
254
254
254
254
254
254
254
254
254
255
24
0
0
0
0
0
0
168
254
254
254
254
254
254
254
254
254
254
254
254
254
254
254
254
254
254
254
254
254
254
254
254
254
254
254
254
254
250
0
73
216
206
205
205
206
206
180
0
36
255
254
254
254
254
254
254
254
254
254
254
254
254
254
254
254
254
254
254
254
254
254
254
254
254
255
79
0
0
0
12
0
17
235
255
254
254
254
254
254
254
254
254
254
254
254
254
254
254
254
254
254
254
254
254
254
254
254
254
254
254
254
255
155
0
124
212
205
205
205
210
101
92
0
199
255
254
254
254
254
254
254
254
254
254
254
254
254
254
254
254
254
254
254
254
254
254
254
254
253
255
98
173
179
197
255
61
192
255
254
254
254
254
254
254
254
254
254
254
254
254
254
254
254
254
254
254
254
254
254
254
254
254
254
254
254
253
255
102
0
102
224
205
205
205
215
156
0
0
128
255
254
254
254
254
254
254
254
254
254
254
254
254
254
254
254
254
254
254
254
254
254
254
254
254
255
255
255
255
254
255
255
255
254
254
254
254
254
254
254
254
254
254
254
254
254
254
254
254
254
254
254
254
254
254
254
254
254
254
254
254
254
255
119
0
37
205
205
205
205
205
156
0
0
70
254
253
254
254
254
254
253
254
254
254
254
254
254
254
254
254
254
254
254
254
254
254
254
254
254
254
254
254
254
254
254
254
254
254
254
254
254
254
254
254
254
254
254
254
254
254
254
254
254
254
254
254
254
254
254
254
254
254
254
254
254
254
255
197
0
194
215
205
205
205
205
175
0
0
216
255
255
255
254
255
255
251
255
254
254
254
254
254
254
254
254
254
254
254
254
254
254
254
254
254
254
254
254
254
254
254
254
254
254
254
254
254
254
254
254
254
254
254
254
254
254
254
254
254
254
254
254
254
254
254
254
254
254
254
254
254
254
255
224
0
150
205
205
205
205
206
218
8
0
163
41
253
169
138
168
77
22
229
253
254
254
254
254
254
254
254
254
254
254
254
254
254
254
254
254
254
254
254
254
254
254
254
254
254
254
254
254
254
254
254
254
254
254
254
254
254
254
254
254
254
254
254
254
254
254
254
254
254
254
254
254
254
255
115
35
220
206
205
205
205
204
202
50
0
247
0
157
81
167
244
21
5
254
254
254
254
254
254
254
254
254
254
254
254
254
254
254
254
254
254
254
254
254
254
254
254
254
254
254
254
254
254
254
254
254
254
254
254
254
254
254
254
254
254
254
254
254
254
254
254
254
254
254
254
254
254
253
255
61
36
208
204
205
205
205
205
211
214
86
0
0
91
10
14
8
0
0
240
255
254
254
254
254
254
254
254
254
254
254
254
254
254
254
254
254
254
254
254
254
254
254
254
254
254
254
254
254
254
254
254
254
254
254
254
254
254
254
254
254
254
254
254
254
254
254
254
254
254
254
254
254
254
255
74
24
226
205
205
205
205
205
205
206
221
154
207
193
176
86
124
0
0
161
255
254
254
254
254
254
254
254
254
254
254
254
254
254
254
254
254
254
254
254
254
254
254
254
254
254
254
254
254
254
254
254
254
254
254
254
254
254
254
254
254
254
254
254
254
254
254
254
254
254
254
254
254
254
255
156
0
215
205
205
205
205
205
205
205
205
207
207
204
214
205
235
59
63
255
255
254
254
254
254
254
254
254
254
254
254
254
254
254
254
254
254
254
254
254
254
254
254
254
254
254
254
254
254
254
254
254
254
254
254
254
254
254
254
254
254
254
254
254
254
254
254
254
254
254
254
254
254
254
226
0
0
173
204
205
205
205
205
205
205
205
205
205
205
205
204
217
81
12
252
253
254
254
254
254
254
254
254
254
254
254
254
254
254
254
254
254
254
254
254
254
254
254
254
254
254
254
254
254
254
254
254
254
254
254
254
254
254
254
254
254
254
254
254
254
254
254
254
254
254
254
254
254
254
255
19
81
223
205
205
205
205
205
205
208
208
205
203
205
205
205
206
85
10
255
253
254
254
254
254
254
254
254
254
254
254
254
254
254
254
254
254
254
254
254
254
254
254
254
254
254
254
254
254
254
254
254
254
254
254
254
254
254
254
255
255
255
255
253
255
255
255
255
253
254
255
255
255
252
255
29
66
205
209
205
205
205
205
213
186
124
239
208
208
203
202
224
134
0
255
255
254
254
254
254
254
254
254
254
254
254
254
254
254
254
254
254
254
254
254
254
254
254
254
254
254
254
254
254
254
254
254
254
254
254
254
254
254
255
184
152
69
250
215
221
196
112
255
237
248
233
153
255
248
255
26
0
107
210
205
205
205
208
209
38
97
255
254
255
255
222
228
0
0
195
254
254
254
254
254
254
254
254
254
254
254
254
254
254
254
254
254
254
254
254
254
254
254
254
254
254
254
254
254
254
254
254
254
254
254
254
254
254
235
0
9
0
1
0
0
0
3
9
0
0
0
0
57
17
8
0
0
84
208
205
205
205
219
79
0
0
164
98
106
77
13
220
41
101
255
254
254
254
254
254
254
254
254
254
254
254
254
254
254
254
254
254
254
254
254
254
254
254
254
254
254
254
254
254
254
254
254
254
254
254
254
254
254
255
210
255
87
172
197
198
248
255
149
158
160
218
255
240
240
120
161
0
83
225
205
205
204
185
0
0
175
159
120
8
46
104
121
89
29
252
253
254
254
254
254
254
254
254
254
254
254
254
254
254
254
254
254
254
254
254
254
254
254
254
254
254
254
254
254
254
254
254
254
254
254
254
254
254
254
253
255
255
255
255
253
255
254
255
255
254
255
255
253
255
254
150
0
34
222
205
205
205
217
10
0
181
255
255
247
255
255
255
255
219
255
254
254
254
254
254
254
254
254
254
254
254
254
254
254
254
254
254
254
254
254
254
254
254
254
254
254
254
254
254
254
254
254
254
254
254
254
254
254
254
254
254
254
254
254
254
254
254
254
254
254
254
254
254
254
255
187
0
0
200
204
205
205
230
57
47
255
255
254
253
254
254
254
254
253
254
254
254
254
254
254
254
254
254
254
254
254
254
254
254
254
254
254
254
254
254
254
254
254
254
254
254
254
254
254
254
254
254
254
254
254
254
254
254
254
254
254
254
254
254
254
254
254
254
254
254
254
254
254
253
243
2
0
10
209
204
205
210
156
0
36
255
253
254
254
254
254
254
254
254
254
254
254
254
254
254
254
254
254
254
254
254
254
254
254
254
254
254
254
254
254
254
254
254
254
254
254
254
254
254
254
254
254
254
254
254
254
254
254
254
254
254
254
254
254
254
254
254
254
254
254
254
254
254
254
255
66
0
0
206
208
205
207
176
0
38
255
254
254
254
254
254
254
254
254
254
254
254
254
254
254
254
254
254
254
254
254
254
254
254
254
254
254
254
254
254
254
254
254
254
254
254
254
254
254
254
254
254
254
254
254
254
254
254
254
254
254
254
254
254
254
254
254
254
254
254
254
254
254
254
255
107
0
0
155
206
205
204
171
0
0
255
255
254
254
254
254
254
254
254
254
254
254
254
254
254
254
254
254
254
254
254
254
254
254
254
254
254
254
254
254
254
254
254
254
254
254
254
254
254
254
254
254
254
254
254
254
254
254
254
254
254
254
254
254
254
254
254
254
254
254
254
254
254
254
254
104
0
0
133
205
205
214
198
7
0
204
253
254
254
254
254
254
254
254
254
254
254
254
254
254
254
254
254
254
254
254
254
254
254
254
254
254
254
254
254
254
254
254
254
254
254
254
254
254
254
254
254
254
254
254
254
254
254
254
254
254
254
254
254
254
254
254
254
254
254
254
254
254
254
255
160
0
0
134
219
205
205
52
0
77
255
255
254
254
254
254
254
254
254
254
254
254
254
254
254
254
254
254
254
254
254
254
254
254
254
254
254
254
254
254
254
254
254
254
254
254
254
254
254
254
254
254
254
254
254
254
254
254
254
254
254
254
254
254
254
254
254
254
254
254
254
254
254
254
255
226
0
0
80
210
205
221
119
0
72
255
253
254
254
254
254
254
254
254
254
254
254
254
254
254
254
254
254
254
254
254
254
254
254
254
254
254
254
254
254
254
254
254
254
254
254
254
254
254
254
254
254
254
254
254
254
254
254
254
254
254
254
254
254
254
254
254
254
254
254
254
254
254
254
253
219
0
24
221
208
205
211
147
0
71
255
254
254
254
254
254
254
254
254
254
254
254
254
254
254
254
254
254
254
254
254
254
254
254
254
254
254
254
254
254
254
254
254
254
254
254
254
254
254
254
254
254
254
254
254
254
254
254
254
254
254
254
254
254
254
254
254
254
254
254
254
254
254
254
253
234
0
0
169
205
205
205
144
0
23
252
254
254
254
254
254
254
254
254
254
254
254
254
254
254
254
254
254
254
254
254
254
254
254
254
254
254
254
254
254
254
254
254
254
254
254
254
254
254
254
254
254
254
254
254
254
254
254
254
254
254
254
254
254
254
254
254
254
254
254
254
254
254
254
255
255
32
102
229
205
205
218
176
0
218
255
254
254
254
254
254
254
254
254
254
254
254
254
254
254
254
254
254
254
254
254
254
254
254
254
254
254
254
254
254
254
254
254
254
254
254
254
254
254
254
254
254
254
254
254
254
254
254
254
254
254
254
254
254
254
254
254
254
254
254
254
254
254
254
255
113
0
50
207
205
205
202
22
0
141
255
254
254
254
254
254
254
254
254
254
254
254
254
254
254
254
254
254
254
254
254
254
254
254
254
254
254
254
254
254
254
254
254
254
254
254
254
254
254
254
254
254
254
254
254
254
254
254
254
254
254
254
254
254
254
254
254
254
254
254
254
254
254
254
255
187
0
56
219
204
205
225
83
0
111
255
254
254
254
254
254
254
254
254
254
254
254
254
254
254
254
254
254
254
254
254
254
254
254
254
254
254
254
254
254
254
254
254
254
254
254
254
254
254
254
254
254
254
254
254
254
254
254
254
254
254
254
254
254
254
254
254
254
254
254
254
255
255
254
254
186
0
63
215
206
205
216
114
0
110
255
254
254
254
254
254
254
254
254
254
254
254
254
254
254
254
254
254
254
254
254
254
254
254
254
254
254
254
254
254
254
254
254
254
254
254
254
254
254
254
254
254
254
254
254
254
254
254
254
254
254
254
254
254
254
254
254
254
254
254
255
193
205
255
254
208
0
185
117
209
205
205
113
0
55
255
254
254
254
254
254
254
254
254
254
254
254
254
254
254
254
254
254
254
254
254
254
254
255
253
254
255
255
255
253
253
255
255
254
253
254
254
254
254
254
254
254
254
254
254
254
254
254
254
254
254
254
254
254
254
254
254
254
254
255
239
0
190
223
255
255
0
3
30
228
205
210
159
0
249
255
254
254
254
254
254
254
254
254
254
254
254
254
254
254
254
254
254
254
254
254
255
255
255
222
214
210
128
255
242
241
245
167
255
243
255
254
254
254
254
254
254
254
254
254
254
254
254
254
254
254
254
254
254
254
254
254
254
254
254
255
31
30
0
96
255
28
0
0
203
205
210
202
0
184
255
254
254
254
254
254
254
254
254
254
254
254
254
254
254
254
254
254
254
254
254
254
163
0
0
0
0
0
44
0
0
0
0
76
3
236
253
254
254
254
254
254
254
254
254
254
254
254
254
254
254
254
254
254
254
254
254
254
254
255
169
0
0
0
126
215
0
0
0
192
205
214
71
0
151
255
254
254
254
254
254
254
254
254
254
254
254
254
254
254
254
254
254
254
254
254
255
240
0
208
72
34
30
91
0
7
18
1
0
153
255
254
254
254
254
254
254
254
254
254
254
254
254
254
254
254
254
254
254
254
254
254
254
254
255
166
0
92
255
249
2
0
0
38
208
205
221
82
0
214
255
254
254
254
254
254
254
254
254
254
254
254
254
254
254
254
254
254
254
254
254
254
255
0
131
217
214
208
231
160
215
215
48
90
255
254
254
254
254
254
254
254
254
254
254
254
254
254
254
254
254
254
254
254
254
254
254
254
254
254
255
210
12
93
255
15
2
0
103
218
207
199
21
25
255
253
254
254
254
254
254
254
254
254
254
254
254
254
254
254
254
254
254
254
254
254
253
249
46
255
217
204
204
205
206
206
222
81
7
176
255
254
254
254
254
254
254
254
254
254
254
254
254
254
254
254
254
254
254
254
254
254
254
254
254
254
255
245
171
255
0
0
0
73
227
204
182
0
38
255
255
254
254
254
254
254
254
254
254
254
254
254
254
254
254
254
254
254
254
254
254
254
255
16
214
198
205
205
205
205
205
205
77
0
97
255
254
254
254
254
254
254
254
254
254
254
254
254
254
254
254
254
254
254
254
254
254
254
254
254
254
254
255
253
255
33
0
0
15
201
204
193
0
179
255
254
254
254
254
253
254
254
254
254
253
254
254
254
254
254
254
254
253
253
255
254
254
255
127
245
217
205
205
205
205
205
208
229
68
30
255
253
254
254
254
254
254
254
254
254
254
254
254
254
254
254
254
254
254
254
254
254
254
254
254
254
254
254
254
255
106
0
0
159
218
207
227
22
131
250
255
255
255
255
252
255
255
255
255
255
255
254
255
255
255
255
255
247
253
254
255
255
191
0
13
157
228
205
215
205
205
205
206
65
27
255
253
254
254
254
254
254
254
254
254
254
254
254
254
254
254
254
254
254
254
254
254
254
254
254
254
254
254
255
212
0
0
101
231
205
209
84
0
20
0
105
147
132
58
24
129
186
179
101
59
174
219
220
147
100
198
223
0
11
36
147
94
14
0
0
0
115
51
172
214
205
205
226
80
57
255
254
254
254
254
254
254
254
254
254
254
254
254
254
254
254
254
254
254
254
254
254
254
254
254
254
254
254
255
241
6
0
32
204
205
210
184
212
130
0
0
0
0
87
102
39
0
0
0
0
0
0
0
0
6
9
108
0
1
0
0
34
85
84
119
0
26
0
42
204
205
204
168
0
187
255
254
254
254
254
254
254
254
254
254
254
254
254
254
254
254
254
254
254
254
254
254
254
254
254
254
254
254
255
137
0
3
176
215
205
205
207
205
226
151
0
0
0
182
65
21
49
0
0
0
195
187
224
255
255
255
255
177
253
247
247
255
255
255
255
217
255
98
221
217
217
210
226
183
162
241
255
255
254
254
254
254
254
254
254
254
254
254
254
254
254
254
254
254
254
254
254
254
254
254
254
254
253
255
87
0
142
219
205
205
205
205
205
205
136
0
57
152
195
81
82
234
124
0
98
255
253
255
255
253
253
254
255
255
253
253
254
254
253
254
253
255
255
255
157
145
81
64
78
11
0
72
255
253
254
254
254
254
254
254
254
254
254
254
254
254
254
254
254
254
254
254
254
254
254
254
254
255
255
70
23
224
205
205
205
205
205
205
205
222
161
198
231
100
190
204
207
236
91
25
255
254
254
254
254
254
254
254
254
254
254
254
254
254
254
254
255
184
159
14
0
0
39
48
123
153
137
255
254
254
254
254
254
254
254
254
254
254
254
254
254
254
254
254
254
254
254
254
254
254
254
254
255
115
0
0
208
206
205
205
205
205
205
205
205
207
207
157
0
247
152
234
161
0
0
241
253
254
254
254
254
254
254
254
254
254
254
254
254
254
254
255
193
0
38
47
63
238
255
255
255
254
255
254
254
254
254
254
254
254
254
254
254
254
254
254
254
254
254
254
254
254
254
254
254
254
255
166
0
0
0
160
204
205
205
205
205
205
205
205
205
209
212
0
146
0
75
0
25
95
255
254
254
254
254
254
254
254
254
254
254
254
254
254
254
254
254
255
243
255
255
255
255
254
254
254
254
254
254
254
254
254
254
254
254
254
254
254
254
254
254
254
254
254
254
254
254
254
254
254
254
255
212
1
0
64
216
205
205
205
205
205
205
205
205
205
212
74
0
138
249
224
239
255
255
255
254
254
254
254
254
254
254
254
254
254
254
254
254
254
254
254
254
254
254
253
254
254
254
254
254
254
254
254
254
254
254
254
254
254
254
254
254
254
254
254
254
254
254
254
254
254
254
254
254
254
255
95
0
28
202
210
205
205
205
205
205
205
205
205
205
220
100
0
215
255
253
253
254
253
254
254
254
254
254
254
254
254
254
254
254
254
254
254
254
254
254
254
254
254
254
254
254
254
254
254
254
254
254
254
254
254
254
254
254
254
254
254
254
254
254
254
254
254
254
254
254
254
254
254
255
141
0
3
176
215
205
205
205
205
205
205
205
205
205
205
205
99
0
255
253
254
254
254
254
254
254
254
254
254
254
254
254
254
254
254
254
254
254
254
254
254
254
254
254
254
254
254
254
254
254
254
254
254
254
254
254
254
254
254
254
254
254
254
254
254
254
254
254
254
254
254
254
254
254
216
0
0
59
225
205
205
205
205
205
205
205
205
205
205
205
224
123
0
255
255
254
254
254
254
254
254
254
254
254
254
254
254
254
254
254
254
254
254
254
254
254
254
254
254
254
254
254
254
254
254
254
254
254
254
254
254
254
254
254
254
254
254
254
254
254
254
254
254
254
254
254
254
254
255
255
33
0
32
208
205
205
205
205
205
205
205
205
205
205
204
189
0
0
206
255
254
254
254
254
254
254
254
254
254
254
254
254
254
254
254
254
254
254
254
254
254
254
254
254
254
254
254
254
254
254
254
254
254
254
254
254
254
254
254
254
254
254
254
254
254
254
254
254
254
254
254
254
254
255
116
0
14
190
213
205
205
205
205
205
205
205
205
205
205
205
225
31
0
163
254
254
254
254
254
254
254
254
254
254
254
254
254
254
254
254
254
254
254
254
254
254
254
254
254
254
254
254
254
254
254
254
254
254
254
254
254
254
254
254
254
254
254
254
254
254
254
254
254
254
254
254
254
255
167
0
0
74
223
205
205
205
205
205
205
205
205
205
205
205
205
224
64
15
239
255
254
254
254
254
254
254
254
254
254
254
254
254
254
254
254
254
254
254
254
254
254
254
254
254
254
254
254
254
254
254
254
254
254
254
254
254
254
254
254
254
254
254
254
254
254
254
254
254
254
254
254
255
213
1
0
0
52
212
205
205
205
205
205
205
205
205
205
205
205
205
206
64
30
255
253
254
254
254
254
254
254
254
254
254
254
254
254
254
254
254
254
254
254
254
254
254
254
254
254
254
254
254
254
254
254
254
254
254
254
254
254
254
254
254
254
254
254
254
254
254
254
254
254
254
255
255
250
32
0
0
30
201
210
205
205
205
205
205
205
205
205
205
205
205
205
225
76
61
255
254
254
254
254
254
254
254
254
254
254
254
254
254
254
254
254
254
254
254
254
254
254
254
254
254
254
254
254
254
254
254
254
254
254
254
254
254
254
254
254
254
254
254
254
254
254
254
254
253
255
237
123
78
0
0
0
90
220
205
205
205
205
205
205
205
205
205
205
205
205
204
174
0
194
255
254
254
254
254
254
254
254
254
254
254
254
254
254
254
254
254
254
254
254
254
254
254
254
254
254
254
254
254
254
254
254
254
254
254
254
254
254
254
254
254
254
254
254
254
254
254
254
255
252
255
60
0
0
0
0
0
73
214
205
205
205
205
205
205
205
205
205
205
205
205
205
219
0
145
255
254
254
254
254
254
254
254
254
254
254
254
254
254
254
254
254
254
254
254
254
254
254
254
254
254
254
254
254
254
254
254
254
254
254
254
254
254
254
254
254
254
254
254
254
254
253
255
255
46
67
0
0
0
0
0
44
209
208
205
205
205
205
205
205
205
205
205
205
205
205
205
225
30
71
255
254
254
254
254
254
254
254
254
254
254
254
254
254
254
254
254
254
254
254
254
254
254
254
254
254
254
254
254
254
254
254
254
254
254
254
254
254
254
254
254
254
254
254
253
255
250
255
98
0
0
0
0
0
0
12
189
213
205
205
205
205
205
205
205
205
205
205
205
205
205
211
162
0
67
255
253
254
254
254
254
254
254
254
254
254
254
254
254
254
254
254
254
254
254
254
254
254
254
254
254
254
254
254
254
254
254
254
254
254
254
254
254
254
254
254
254
254
255
244
255
67
7
0
1
0
129
161
31
85
153
218
205
205
205
205
205
205
205
205
205
205
205
205
205
205
206
150
0
103
255
254
254
254
254
254
254
254
254
254
254
254
254
254
254
254
254
254
254
254
254
254
254
254
254
254
254
254
254
254
254
254
254
254
254
254
254
254
254
254
254
255
255
255
47
2
0
5
0
145
188
217
218
203
221
210
205
205
205
205
205
205
205
205
205
205
205
205
205
205
205
205
159
0
228
255
254
254
254
254
254
254
254
254
254
254
254
254
254
254
254
254
254
254
254
254
254
254
254
254
254
254
254
254
254
254
254
254
254
254
254
254
254
254
255
255
255
165
118
0
11
0
159
194
218
205
205
205
204
205
205
205
205
205
205
205
205
205
205
205
205
205
205
205
205
205
214
202
0
189
255
254
254
254
254
254
254
254
254
254
254
254
254
254
254
254
254
254
254
254
254
254
254
254
254
254
254
254
254
254
254
254
254
254
254
254
254
255
255
250
150
98
0
12
0
172
198
218
205
205
205
205
205
205
205
205
205
205
205
205
205
205
205
205
205
205
205
205
205
205
205
207
44
0
109
255
253
254
254
254
254
253
253
255
254
254
253
254
254
254
254
254
254
254
254
254
254
253
254
254
254
254
254
254
254
254
254
254
254
254
255
255
241
135
80
0
0
1
186
202
218
204
205
205
205
205
205
205
205
205
205
205
205
205
205
205
205
205
205
205
205
205
205
205
205
205
224
104
21
255
255
228
255
254
255
255
255
249
255
255
255
251
255
253
255
255
254
254
253
255
255
255
255
255
254
255
255
255
255
255
255
254
255
255
255
230
119
64
0
0
0
0
136
220
204
205
205
205
205
205
205
205
205
205
205
205
205
205
205
205
205
205
205
205
205
205
205
205
205
205
205
207
118
0
70
20
0
138
101
101
58
1
0
44
146
104
31
216
184
188
161
255
255
216
222
196
255
101
155
248
232
161
140
133
64
255
199
179
177
104
48
0
0
0
0
132
118
221
205
205
205
205
205
205
205
205
205
205
205
205
205
205
205
205
205
205
205
205
205
205
205
205
205
205
205
205
205
221
148
37
90
138
21
4
10
52
100
103
98
0
19
59
0
0
0
0
98
0
0
0
0
80
0
0
9
0
0
0
0
0
14
0
0
0
0
0
23
111
145
132
228
205
206
205
205
205
205
205
205
205
205
205
205
205
205
205
205
205
205
205
205
205
205
205
205
205
205
205
205
205
205
205
205
218
204
220
219
207
214
205
223
222
206
223
190
222
228
175
183
182
215
228
153
0
30
24
40
107
0
13
6
11
68
106
26
8
1
0
0
32
124
0
197
214
205
205
205
205
205
205
205
205
205
205
205
205
205
205
205
205
205
205
205
205
205
205
205
205
205
205
205
205
205
205
205
205
205
205
205
204
205
205
206
204
204
205
205
205
205
204
205
205
209
205
204
205
205
219
192
225
208
213
231
174
216
202
211
225
213
9
159
182
70
119
0
207
166
218
205
205
205
205
205
205
205
205
205
205
205
205
205
205
205
205
205
205
205
205
205
205
205
205
205
205
205
205
205
205
205
205
205
205
205
205
205
205
205
205
205
205
205
205
205
205
205
205
205
205
205
205
205
205
205
205
205
204
205
205
206
206
204
205
205
251
222
220
215
205
227
175
219
205
205
205
205
205
205
205
205
205
205
205
205
205
205
205
205
205
205
205
205
205
205
205
205
205
205
205
205
205
205
205
205
205
205
205
205
205
205
205
205
205
205
205
205
205
205
205
205
205
205
205
205
205
205
205
205
205
205
205
205
205
205
205
205
205
205
206
130
68
205
205
205
205
205
205
205
205
205
205
205
205
205
205
205
205
205
205
205
205
205
205
205
205
205
205
205
205
205
205
205
205
205
205
205
205
